<?xml version="1.0" standalone="no"?>
<!DOCTYPE svg PUBLIC "-//W3C//DTD SVG 20010904//EN"
 "http://www.w3.org/TR/2001/REC-SVG-20010904/DTD/svg10.dtd">
<svg version="1.0" xmlns="http://www.w3.org/2000/svg"
 width="571.000000pt" height="245.000000pt" viewBox="0 0 571.000000 245.000000"
 preserveAspectRatio="xMidYMid meet">
<metadata>
Created by potrace 1.16, written by Peter Selinger 2001-2019
</metadata>
<g transform="translate(0.000000,245.000000) scale(0.100000,-0.100000)"
fill="#000000" stroke="none">
<path d="M463 2041 l-293 -287 0 -174 0 -174 20 22 c24 25 25 32 5 32 -18 0
-19 20 -4 69 10 34 14 37 42 33 22 -3 34 1 45 14 13 19 14 19 10 0 -2 -12 -15
-23 -34 -28 -18 -4 -35 -15 -38 -24 -4 -12 -2 -15 9 -10 12 4 14 0 9 -21 -5
-18 -4 -24 5 -19 6 4 9 12 6 17 -4 5 0 9 8 9 7 0 51 38 96 85 46 47 86 85 90
85 8 0 34 41 29 46 -3 2 -19 0 -36 -5 -20 -6 -32 -6 -32 0 0 5 5 9 11 9 7 0 9
12 6 33 -3 17 -3 26 0 20 9 -23 35 -15 33 10 -3 35 0 43 10 27 9 -13 10 -13
10 0 0 12 2 12 9 1 6 -9 11 -10 15 -2 4 6 0 14 -9 17 -14 6 -14 8 1 25 16 18
18 18 30 1 12 -16 12 -16 9 3 -1 11 4 30 11 43 8 12 11 22 7 22 -5 1 5 8 21
17 25 13 27 17 13 24 -13 8 -14 14 -5 34 6 14 15 25 20 25 13 0 10 -12 -9 -33
-16 -19 -17 -20 -1 -14 9 3 18 3 20 -1 2 -4 19 10 39 31 21 20 33 37 29 37 -5
0 -16 -7 -24 -16 -15 -14 -16 -14 -16 3 0 15 -2 16 -11 3 -9 -12 -10 -12 -5 3
3 10 6 22 6 25 0 4 5 0 10 -8 8 -13 11 -13 26 2 13 13 15 20 6 31 -9 11 -8 14
3 14 8 0 11 -5 8 -11 -4 -6 2 -4 13 4 29 22 30 24 12 17 -9 -3 -22 1 -28 8 -7
8 -16 12 -21 9 -5 -3 -9 4 -9 16 0 18 21 44 76 89 37 31 106 17 97 -20 -5 -17
-2 -20 18 -17 19 2 25 -2 27 -20 3 -16 8 -22 18 -18 8 3 17 -1 20 -9 4 -8 12
-15 19 -15 7 0 32 -21 56 -47 24 -27 47 -47 52 -45 4 1 7 -3 7 -8 0 -5 5 -10
10 -10 27 0 -2 37 -133 168 -78 78 -144 142 -147 142 -3 -1 -137 -130 -297
-289z"/>
<path d="M658 1918 c-54 -55 -98 -102 -98 -104 0 -2 8 -1 18 3 21 8 57 44 57
58 0 5 10 14 23 20 12 5 22 13 22 17 0 13 54 63 71 66 9 1 79 -58 164 -140 81
-79 211 -204 289 -279 77 -76 143 -133 144 -128 2 5 -2 16 -8 24 -9 11 -9 15
-1 15 8 0 11 43 11 141 l0 141 -38 36 c-105 100 -122 115 -122 104 0 -6 17
-29 38 -52 57 -61 62 -68 62 -80 0 -6 10 -15 23 -20 17 -7 18 -9 5 -9 -12 -1
-18 -10 -19 -28 -2 -26 -2 -27 -6 -4 -4 19 -7 21 -15 10 -7 -11 -9 -8 -5 9 3
12 3 22 1 22 -3 0 -9 -10 -14 -22 -7 -18 -9 -19 -9 -5 -1 25 -19 21 -23 -5 -2
-15 -10 -23 -22 -23 -11 0 -21 -6 -23 -12 -3 -8 4 -13 16 -13 14 0 21 -6 21
-19 0 -25 -47 -16 -55 10 -4 10 -10 19 -15 19 -5 0 -32 23 -59 50 -28 28 -56
49 -62 48 -7 -2 -14 3 -15 10 -1 6 -2 17 -3 22 0 6 -7 10 -15 10 -8 0 -16 7
-20 15 -3 8 -13 15 -21 15 -9 0 -14 3 -12 8 9 15 -13 54 -28 49 -9 -4 -12 -1
-8 9 3 9 -1 14 -12 14 -9 0 -14 4 -11 9 4 5 -3 7 -15 4 -19 -5 -20 -4 -10 15
15 29 14 45 -4 38 -9 -3 -15 0 -15 9 0 7 -5 17 -12 21 -7 5 -8 3 -3 -7 7 -12
6 -12 -7 -1 -13 10 -17 10 -21 0 -4 -10 -7 -11 -18 0 -7 6 -15 12 -18 11 -4 0
-50 -45 -103 -101z"/>
<path d="M4492 1469 l3 -480 78 -2 77 -2 0 483 0 482 -80 0 -80 0 2 -481z"/>
<path d="M1920 1830 l0 -70 185 0 185 0 0 -277 c0 -245 -2 -282 -18 -313 -47
-96 -198 -91 -283 8 l-36 42 -46 -55 c-26 -29 -47 -58 -47 -63 0 -21 94 -92
149 -113 73 -28 204 -31 277 -6 58 20 113 72 140 132 16 36 19 79 22 413 l3
372 -265 0 -266 0 0 -70z"/>
<path d="M692 1737 l-62 -63 0 -190 0 -191 -220 -217 -220 -216 0 -94 0 -94
138 -131 137 -130 3 193 2 194 64 69 c73 79 86 100 86 142 0 25 11 39 68 84
37 30 100 88 140 130 l72 75 0 188 0 188 -67 63 c-38 34 -70 63 -73 63 -3 0
-34 -28 -68 -63z"/>
<path d="M2942 1700 c-75 -11 -174 -62 -217 -112 -98 -115 -117 -280 -49 -424
83 -176 337 -246 531 -145 120 61 192 205 180 354 -14 169 -130 294 -301 326
-65 12 -67 12 -144 1z m156 -145 c75 -32 121 -101 129 -194 7 -78 -11 -135
-59 -187 -121 -131 -331 -68 -368 110 -23 114 31 227 130 270 46 20 121 20
168 1z"/>
<path d="M5105 1696 c-115 -29 -207 -105 -246 -204 -32 -80 -32 -214 0 -293
71 -182 283 -268 500 -203 52 15 128 65 138 90 3 10 -8 30 -32 54 l-37 38 -45
-28 c-135 -86 -311 -51 -368 72 -13 29 -22 55 -19 60 3 4 129 8 281 8 l276 0
-5 83 c-9 172 -100 287 -257 323 -68 16 -120 16 -186 0z m180 -135 c22 -10 50
-29 62 -42 20 -22 53 -97 53 -120 0 -6 -88 -8 -202 -7 l-203 3 3 25 c16 118
171 195 287 141z"/>
<path d="M3572 1433 c3 -248 5 -271 24 -313 47 -101 124 -144 254 -144 94 0
153 21 210 74 16 15 32 25 35 22 3 -3 5 -22 5 -43 l0 -37 71 -4 c39 -2 73 -1
75 1 5 6 5 696 0 702 -2 2 -38 3 -80 1 l-76 -4 -1 -206 c0 -170 -3 -215 -17
-251 -42 -110 -197 -156 -282 -85 -53 45 -55 52 -60 309 l-5 240 -78 3 -78 3
3 -268z"/>
<path d="M1020 1426 l0 -126 -200 -199 c-184 -184 -200 -203 -200 -235 0 -27
8 -43 38 -71 24 -24 33 -39 25 -42 -7 -2 -13 -12 -13 -21 0 -12 -3 -13 -12 -4
-7 7 -16 12 -20 12 -4 0 -8 -112 -8 -248 l0 -248 55 -54 c44 -44 55 -50 61
-37 7 20 30 23 36 5 3 -8 23 4 52 32 l47 45 -6 140 c-5 106 -4 136 5 125 9
-12 10 -8 5 20 -10 58 -11 123 -1 154 9 29 -4 49 -28 40 -24 -8 -66 -12 -66
-7 0 4 25 34 55 67 31 34 61 68 68 76 7 9 101 106 210 216 l197 201 -150 143
-150 142 0 -126z"/>
<path d="M347 1402 l-138 -139 66 -62 66 -62 84 78 84 78 0 85 c1 89 -7 160
-18 160 -3 0 -68 -62 -144 -138z"/>
<path d="M1102 908 l-83 -81 21 -21 c18 -20 20 -38 22 -208 l3 -186 138 132
137 132 0 92 0 91 -70 63 c-39 35 -74 64 -78 65 -4 2 -44 -34 -90 -79z"/>
<path d="M1919 743 c3 -21 6 -30 9 -20 4 21 22 23 22 2 0 -13 131 -15 1123
-14 617 1 1102 5 1079 9 -24 3 -48 13 -53 21 -8 12 -11 12 -20 -1 -8 -11 -12
-12 -16 -2 -5 13 -43 17 -43 3 0 -4 -11 -6 -25 -3 -14 2 -25 0 -25 -5 0 -14
-177 -16 -185 -2 -4 6 -19 8 -34 5 l-26 -5 28 13 c21 9 125 13 408 15 361 2
381 1 377 -16 -3 -15 -16 -18 -92 -20 -157 -5 -105 -13 75 -12 96 1 165 4 154
6 -11 3 -23 10 -26 15 -4 7 -15 6 -29 -2 -18 -10 -24 -9 -31 1 -7 12 -11 11
-19 -1 -8 -12 -10 -12 -10 5 0 24 -31 22 452 31 387 7 525 1 531 -24 3 -10 5
-5 6 11 l1 27 -1818 0 -1818 0 5 -37z"/>
<path d="M5530 526 l0 -34 -43 5 c-53 6 -80 -18 -75 -68 4 -46 44 -74 83 -59
22 8 30 8 37 -2 4 -7 8 33 8 90 0 56 -2 102 -5 102 -3 0 -5 -15 -5 -34z"/>
<path d="M4711 400 c1 -52 4 -81 6 -65 6 40 17 49 41 36 30 -16 70 2 79 36 16
62 -11 94 -78 91 l-49 -2 1 -96z"/>
</g>
</svg>
